Plot: A man awakens from a coma to discover he has a psychic detective ability.

Director: David Cronenberg 
Writers: Jeffrey Boam (screenplay), Stephen King (novel) 
Stars: Christopher Walken, Brooke Adams, Tom Skerritt 

MediaInfo 0.7.61:
General
Complete name                            : D:111111The.Dead.Zone.1983The.Dead.Zone.1983.DVDRip.avi
Format                                   : AVI
Format/Info                              : Audio Video Interleave
File size                                : 1.37 GiB
Duration                                 : 1h 43mn
Overall bit rate                         : 1 886 Kbps
Writing application                      : VirtualDubMod 1.5.10.2 (build 2540/release)
Writing library                          : VirtualDubMod build 2540/release

Video
ID                                       : 0
Format                                   : MPEG-4 Visual
Format profile                           : Advanced Simple@L5
Format settings, BVOP                    : 2
Format settings, QPel                    : No
Format settings, GMC                     : No warppoints
Format settings, Matrix                  : Default (H.263)
Codec ID                                 : XVID
Codec ID/Hint                            : XviD
Duration                                 : 1h 43mn
Bit rate                                 : 1 616 Kbps
Width                                    : 720 pixels
Height                                   : 400 pixels
Display aspect ratio                     : 16:9
Frame rate                               : 23.976 fps
Color space                              : YUV
Chroma subsampling                       : 4:2:0
Bit depth                                : 8 bits
Scan type                                : Progressive
Compression mode                         : Lossy
Bits/(Pixel*Frame)                       : 0.234
Stream size                              : 1.17 GiB (86%)
Writing library                          : XviD 1.2.1 (UTC 2008-12-04)

Audio #1
ID                                       : 1
Format                                   : MPEG Audio
Format version                           : Version 1
Format profile                           : Layer 3
Codec ID                                 : 55
Codec ID/Hint                            : MP3
Duration                                 : 1h 43mn
Bit rate mode                            : Constant
Bit rate                                 : 128 Kbps
Channel(s)                               : 2 channels
Sampling rate                            : 48.0 KHz
Compression mode                         : Lossy
Stream size                              : 95.0 MiB (7%)
Alignment                                : Aligned on interleaves
Interleave, duration                     : 42 ms (1.00 video frame)
Interleave, preload duration             : 504 ms

Audio #2
ID                                       : 2
Format                                   : MPEG Audio
Format version                           : Version 1
Format profile                           : Layer 3
Codec ID                                 : 55
Codec ID/Hint                            : MP3
Duration                                 : 1h 43mn
Bit rate mode                            : Constant
Bit rate                                 : 128 Kbps
Channel(s)                               : 2 channels
Sampling rate                            : 48.0 KHz
Compression mode                         : Lossy
Stream size                              : 95.0 MiB (7%)
Alignment                                : Aligned on interleaves
Interleave, duration                     : 42 ms (1.00 video frame)
Interleave, preload duration             : 504 ms
Writing library                          : LAME3.98r
Encoding settings                        : -m s -V 4 -q 2 -lowpass 17 -b 128

Screenshots: 
http://img593.imageshack.us/img593/1443/grab10u.png 
http://img825.imageshack.us/img825/5008/grab11s.png 
http://img651.imageshack.us/img651/7932/grab12k.png 
http://img692.imageshack.us/img692/7308/grab13y.png 
http://img72.imageshack.us/img72/8113/grab15x.png 
http://img27.imageshack.us/img27/6502/grab16k.png 
http://img717.imageshack.us/img717/92/grab17e.png 
http://img854.imageshack.us/img854/8035/grab18o.png